<svg xmlns="http://www.w3.org/2000/svg" viewBox="0 0 274.88 52.73">
  <path d="M26.36,0A26.36,26.36,0,1,0,52.73,26.36,26.36,26.36,0,0,0,26.36,0" fill="#cf0a2c"/>
  <path d="M44.77,38.07a11.46,11.46,0,0,1-4.59,1.34,4.19,4.19,0,0,1-2.38-.76c-4.27-2.84-2.81-6.24.1-11.52A28.8,28.8,0,0,0,41,20.21c.61-2.56,1.16-6.29-1.06-9.11a9.72,9.72,0,0,0-4.71-3,28.18,28.18,0,0,0-8.3-1.15H25.82a28.19,28.19,0,0,0-8.3,1.15,9.72,9.72,0,0,0-4.71,3c-2.22,2.82-1.67,6.55-1.05,9.11a28.6,28.6,0,0,0,3.07,6.92c2.91,5.27,4.37,8.68.1,11.52a4.17,4.17,0,0,1-2.38.76A11.48,11.48,0,0,1,8,38.07l.25.44C10.31,41.67,13,43.35,16,43.35a10.26,10.26,0,0,0,4.14-1,8.3,8.3,0,0,0,3.74-3.45,7.18,7.18,0,0,0,1-4.73A45,45,0,0,0,23.1,29c-2.1-5.44-5-12.87-2.49-16.5,1-1.53,2.93-2.28,5.75-2.29s4.71.76,5.75,2.29c2.48,3.63-.39,11.06-2.49,16.49a45.64,45.64,0,0,0-1.81,5.21,7.17,7.17,0,0,0,1,4.74,8.31,8.31,0,0,0,3.74,3.46,10.28,10.28,0,0,0,4.14,1c3,0,5.72-1.68,7.84-4.86Z" fill="#fff"/>
  <path d="M75.71,43.06H70.19V7.13h5.53Z" fill="#231f20"/>
  <path d="M103,43.06H97.44V40.74a8.76,8.76,0,0,1-6.58,2.87c-5.58,0-8.62-3.7-8.62-9.12v-16h5.53v15c0,3,1.44,5,4.59,5a5.14,5.14,0,0,0,5.09-3.92V18.52H103Z" fill="#231f20"/>
  <path d="M115.35,43.06h-5.53V7.13h5.53Z" fill="#231f20"/>
  <path d="M142.6,43.06h-5.53V40.74a8.76,8.76,0,0,1-6.58,2.87c-5.58,0-8.62-3.7-8.62-9.12v-16h5.53v15c0,3,1.44,5,4.59,5a5.14,5.14,0,0,0,5.09-3.92V18.52h5.53Z" fill="#231f20"/>
  <path d="M155,43.06h-5.53V7.13H155Z" fill="#231f20"/>
  <path d="M182.07,35.43c-.83,4.86-4.42,8.18-10.34,8.18-6.85,0-11.61-5.2-11.61-12.77,0-7.35,4.81-12.88,11.5-12.88,6.91,0,10.67,4.92,10.67,12.1v2H165.54c.17,4.31,2.65,6.91,6.19,6.91,2.65,0,4.64-1.16,5.25-3.54ZM165.71,28h11.11c-.05-3-1.77-5.42-5.14-5.42C168.64,22.61,166.37,24.49,165.71,28Z" fill="#231f20"/>
  <path d="M212.8,18c5,0,8,3.54,8,9.12v16h-5.53V28c0-3-1.33-5-4-5a4.34,4.34,0,0,0-4.37,3.65V43.06H201.3V28c0-3-1.33-5-4-5a4.34,4.34,0,0,0-4.37,3.65V43.06h-5.53V18.52h5.53v2A7.54,7.54,0,0,1,199,18a7.87,7.87,0,0,1,6.47,3.26A9.05,9.05,0,0,1,212.8,18Z" fill="#231f20"/>
  <path d="M237.23,43.61c-6.91,0-11.66-5.31-11.66-12.82S230.32,18,237.23,18s11.66,5.31,11.66,12.82S244.14,43.61,237.23,43.61Zm0-20.89c-4,0-6.13,3.43-6.13,8.07s2.16,8.07,6.13,8.07,6.14-3.43,6.14-8.07S241.21,22.72,237.23,22.72Z" fill="#231f20"/>
  <path d="M254,18.52h5.53v2.32A8.88,8.88,0,0,1,266.2,18c5.58,0,8.68,3.7,8.68,9.12v16h-5.53V28c0-3-1.49-5-4.64-5a5.2,5.2,0,0,0-5.14,3.92V43.06H254Z" fill="#231f20"/>
</svg>
