<?xml version="1.0" encoding="utf-8"?>
<!-- Generator: Adobe Illustrator 19.1.0, SVG Export Plug-In . SVG Version: 6.00 Build 0)  -->
<svg version="1.1" id="logo" xmlns="http://www.w3.org/2000/svg" xmlns:xlink="http://www.w3.org/1999/xlink" x="0px" y="0px"
	 viewBox="0 0 746.2 579.6" style="enable-background:new 0 0 746.2 579.6;" xml:space="preserve">
<style type="text/css">
	.st0{fill-rule:evenodd;clip-rule:evenodd;}
</style>
<path class="st0" d="M230.3,0c0.7,0,1.3,0,2,0c2.6,1.8,2,5.2,2.3,8c0.7,8.8,2,18,3,27.2c1.3,12.8,0.8,26.8-0.5,39
	c-2.6,23.8-7.7,47.3-15.7,65c-8.1,17.8-21,33.2-35,46c-10.4,9.5-22.7,17.6-35.7,25c-3.4,1.9-9.4,6.4-14,3c1-4.3,5.4-4.8,8.2-6.2
	c6.6-3.4,14.1-8.4,20-13.2c17.9-14.7,31.3-35.1,40.5-58.7c6-15.4,10.8-34,12-54.2c1.2-19.7,2.2-42.8-3.2-61c-3.8,1.8-6.5,5.2-9.5,8
	c-8.8,8.4-18.4,16.6-26.5,26c-21.1,24.5-38.3,55.3-46,93.4c-3.9,19.3-3.3,42.7,0.5,63.7c7.1,38.7,25,67.7,39,100.7
	c6.8,16,12.1,33.9,16.7,53c4.3,17.9,6,42.5,2,63.2c2.9-1.9,4.9-5,7.2-7.7c6.6-7.9,14.4-15.2,23.5-21.2c5.6-3.7,12.4-7.1,19-11
	c2.9-1.7,5.8-3.6,9.2-5.7c2.5-1.5,7.3-4.8,10.7-4c2.4,0.6,3.9,4.5,4,7.7c0.3,7.1-2.6,13.5-4.8,19.2c-2.3,6.1-4.5,11.9-6,18
	c2.4-0.4,4-2.6,5.7-4.2C270,409,278,397,289.8,387.5c2.1-1.7,4.9-3.6,6.7-1.5c1.6,1.8-1.2,5.8-2.7,8c-2,2.9-3.8,5.1-5,7
	c-8.1,12.5-14.4,25.1-15.2,44.7c-0.2,4.5-0.1,9.6,2.2,10.5c4.1,1.5,9.6-1.8,12.5-3.2c4.4-2.2,8.7-4.6,10.2-8.7
	c2.2-6.2,2.8-12.6,5-18.2c3.7-9.6,10.6-21.1,18.2-28.2c3.1-2.9,10.4-8.7,15.5-7.5c1.7,0.4,1.4,0.5,2.2,2.5
	c3.8-32.9,18.3-57.3,34.2-79.7c11.6-16.3,25.7-30.6,41.5-44c2.4-2,4.9-4.1,8-6.2c3-2.1,7-4.7,10.5-4.5c4.3,4.3,2.9,12.8,2,19.5
	c-2.6,19.1-12.8,33.1-22.7,45.5c-10.5,13.1-21.5,23.5-35.7,32.5c-4.8,3-11.4,5.6-14.7,10c-3.9,5.1-4.6,15-5.5,22.7
	c-3.4,27.7,2.4,52.7,16.7,65.2c5.1,4.4,11.3,8,19.7,8.5c8.2,0.4,16-2.2,21.7-6.2c5.7-4,9-9.5,10-18c0.5-4.1,0.5-8.1,1-13
	c0.4-4,1-8.7-0.5-12.5c-3.7-9.6-14.9-13.5-25.2-15.7c-12.6-2.7-24.7-0.8-34,4c-1.6,0.8-4.2,4-6.7,3.5c-0.7-0.1-2.3-1.6-2.5-2.5
	c-0.6-3,4.4-7.2,7.2-9.5c9.2-7.4,20-14.4,31-19c11.8-5,24.1-8.9,41-8.5c4.8,0.1,12.2,1.3,16.5,0.2c3-0.7,6.4-4.3,8.7-7
	c5-5.7,9.2-10.9,16.2-15c1.7-1,8.5-4.9,12.2-3c1.5,0.7,2.3,2.8,2.5,5c1.1,9.6-0.5,18.7-2.2,26.2c-1.7,7.7-4.8,14.4-5.7,22.5
	c3.1-0.8,5.3-3.5,7.5-5.5c10.9-10.4,14.3-28.9,25-40c2.1-2.2,4.3-4.1,7-6c2.4-1.7,5.1-4.3,8.7-3.5c1,4-1.9,7.5-3.5,10.7
	c-5,10-9.8,20.3-14.5,31c-3,6.9-6.2,14.1-8.7,21.5c-2.6,7.5-5.5,15.5-5,24.2c5.2-2,8.9-6.3,12.5-10c7.3-7.4,12.5-17,18-26.7
	c4.8-8.6,8.2-17.8,20.5-18.7c2.8,3.8,0.1,8-1.5,11.2c-3.3,6.9-5.9,14-8.7,21.5c-1.4,3.6-3.3,7.8-1.5,12c4.1,1.4,8.2-1.8,11.5-4.2
	c3.8-2.8,8.4-6.2,9.2-10.7c0.4-2.1-0.2-4.4-0.2-6.7c0-14.9,2.5-29.4,5.2-42.2c1.7-8,3.1-15.1,5.5-21.7c2.4-6.7,5.5-12.6,8-19.2
	c-8.4,1-13.3,4.3-19.7,8c-2.6,1.5-5.2,3.2-8.5,5.2c-1.8,1.1-8,5-9.7,2c-2.1-3.5,6.4-9.2,8-10.5c10.8-8.3,23.2-15,37.5-19.5
	c6.8-11.9,12.5-25.4,24.2-32.7c1.7-1.1,3.8-2.4,5.7-3.7c1.7-1.2,4-3.3,6.5-2c0,7.1-5.4,11.2-8.7,15.7c-3.5,4.8-7.3,9.3-8.7,16
	c5.7,0,11.5-1.9,17.5-3c16.8-3.1,38.6-5.2,57.2-1.7c-1.2,2.8-4.3,4.7-7,7.2c-2.3,2.2-5.2,6.1-8.2,6.7c-2.3,0.5-5.5-0.2-8.5-0.2
	c-14.1,0-27.6,0.9-40.7,2c-6.3,0.5-12.2,0.9-16.7,3c-5,5.1-9.4,16.9-12,25c-2.8,8.6-4.9,19-6.2,27.7c-2,13.3-2.4,33.1,1,46.5
	c1.2,4.5,2.5,10.6,6,11c3.1,0.3,7-3.9,9.2-5.7c8.3-6.8,13.7-16.5,18.2-26.5c4.6-10.1,7.3-21.7,15.2-29.5c2.2-2.2,6.7-5.8,9.5-4.3
	c4.5,2.5-1.7,13.8-2.7,16c-5.2,10.8-9.5,18.9-14,29.5c-2.1,5-4.7,10.6-4.2,16.5c6.6,2.7,8-4.6,10.2-9.7c3.6-8.3,6.3-15.6,11.5-22.5
	c2.4-3.1,5.2-7.3,9.7-7.3c2.3,0.1,4.1,1.6,4.5,3c0.9,3.2-2.9,7.7-4.2,10.2c-2,3.8-3.6,6.3-4,11c4.3-0.5,7.3-4.4,10.7-7.2
	c6.7-5.5,13.9-10.5,23.5-13.5c5.8-1.8,17.8-5.7,21,0.2c2.8,5.2-1.6,14.1-4,18.7c-2.9,5.6-6.2,10.9-8.5,16.2
	c-2.3,5.2-4.7,11.9-6.5,18.2c-2,7-4.8,19.7,0.8,24.7c4,3.6,11.4,4.2,18,4c13.7-0.4,21-8.6,29-15c3.9-3.1,8.6-7.1,15-6
	c0,0.5,0,1,0,1.5c-4.5,5.8-10.9,10.1-17.2,14.7c-11.9,8.7-23.6,19-43,20.7c-12.3,1.1-22.8-3.7-23.7-16.2
	c-1.1-14.7,4.5-28.1,8.7-38.5c2.3-5.8,5-10.7,7.7-15.7c2.7-5,5.9-10.2,6.2-17.2c-3.7-2.3-7.9-0.2-11.2,1c-16.6,6-26.2,20.2-37,33
	c-2,2.3-4.2,4.7-7,7c-1.9,1.5-7.7,5.1-9.7,2.8c-1.3-1.5,1.1-4.2,0.5-6.7c-5.3,0.6-13,8.3-18.5,6c-3.9-1.7-0.6-9.4-0.5-13.5
	c-1.2-0.3-1.9,1.2-2.7,2c-5.2,4.7-18.7,16-28.5,12.2c-5.5-2.1-5.3-9.8-6.7-16.7c-3.5,0.4-6,3.6-8.7,6c-2.5,2.3-5.3,4.5-8.2,6.5
	c-5.6,4-13.3,8.7-20.7,8.5c-4.7-0.1-7.3-3.2-7.7-8.2c-3.2,0.7-4.9,3.9-7.2,6c-4.7,4.4-9.6,8-16.7,10.7c-6,2.3-13.2,3.9-13.7-4.5
	c-0.4-7.3,1.9-15,4-21.5c2.1-6.6,5.2-12.5,7.2-18.2c-2.4,0.6-4,3.8-6,6.5c-2,2.7-4.8,5.1-6.2,7.5c-3.3,5.4-4.6,12.1-8,17.7
	c-6.5,11-12.8,20.1-22.5,28.7c-2.1,1.9-4.3,3.6-7,5.7c-2.3,1.8-5.3,5-8,4.8c-5-0.4-5.5-10.4-8-13.7c-7.1,5.7-11.9,13.3-19.7,19
	c-7,5.1-17.3,10.7-29,9c-10.4-1.6-17-9.3-22.7-16c-6.1-7.2-10.7-15.1-13-25.5c-10.8,7-19.1,16.3-30,23.7c-3.4,2.3-7.8,5.2-13,4.2
	c-2.2-1.6-2.5-5.2-2.3-9.2c-8.8,3.6-18.6,16.9-32.5,13.5c-3.1-0.8-6.5-2.9-8.2-6.2c-6.6-12.7,4.7-31.4,7-41c-3.7,0.4-6.1,3.6-8.7,6
	c-2.8,2.5-6,4.5-8.7,7c-13.7,22.7-30.1,48.3-51,66.7c-6.4,5.7-14.5,14-25.7,13.2c-12.3-0.9-9.3-15.5-7.2-26c-3.2,2-4.9,5.5-7.2,8.2
	c-7,8.1-15.5,15.2-23.2,23c34.6,25.5,92,35.4,150.1,28.2c13-1.6,25.7-4.7,37.7-8c35.3-9.7,66.3-25.6,98.7-38.2
	c21.6-8.4,45-16.9,71.2-20.2c27.1-3.4,59-3.1,86.7,0c47.3,5.4,87.7,19.3,123.2,36.7c5,2.5,10.2,4.8,13.7,9c-2.6,1-5.1,1.6-7.7,2.5
	c-2.3,0.8-5.3,2.6-7.5,2.5c-1.9-0.1-5.4-3.1-7.5-4.3c-7.5-4.2-15.9-7.6-23.7-11c-10.9-4.7-22.7-9-34-12.5
	c-23.4-7.2-51.4-11.4-78.4-14.5c-44-5-89.9,0.3-122.2,13.2c-10.9,4.4-20.9,9.9-31.2,15.2c-10.3,5.3-21.3,9.7-32,14.5
	c-10.8,4.9-21.6,9.6-32.7,13.7c-5.7,2.1-11.6,3.7-17.5,5.7c-5.7,2-11.4,4.2-17.2,6c-12.1,3.6-25.3,5.6-39,7.5
	c-28.4,3.9-58.8,3-84.4-3c-21.5-5-40.8-13.3-57.2-24.2c-1.7-1.1-5.2-4.4-7-4.5c-3.9-0.3-9.7,5.9-13.2,8.2
	c-12.9,8.6-25.3,17.5-39.2,24.5c-15.6,7.9-53.4,19-60.2-5.7c0-1.3,0-2.7,0-4c2.2-12.4,10-20.5,17.5-27c8.4-7.3,16.3-12.8,27.2-17.2
	c17.4-7.1,47.1-10.8,65.7-2.7c2.7,1.2,4.9,2.7,8,3.2c5.6,1,11.7-6.4,15.5-10c12.5-11.8,22.9-24.9,31.2-40
	c5.5-10,10.1-22.5,12.2-35.2c2.4-14,1-31.5-1-44.5c-4.2-27.3-12.7-50.4-23-71.9c-10.2-21.4-21.8-41.9-30.7-64.2
	c-4.6-11.5-8.4-23.5-10-37.2c-1.7-14.7-0.2-30,1.8-44.2c3.8-27.2,12.2-52,22.5-72.5c16-31.8,37.6-57,64-78.4c4.1-3.4,8.9-6.4,14-9.7
	C219.6,5.6,224.6,1.1,230.3,0z M415.2,279.8c-10.6,7.4-19.3,17.7-27,28.5c-10,13.9-18,29.9-23.5,48c14.5-6.5,27.1-16.6,36.2-29.2
	c6.7-9.2,12.6-20.7,15-34c0.8-4.3,2.3-9.4,0.5-14c-0.2,0-0.3,0-0.5,0C415.6,279.2,415.4,279.5,415.2,279.8z M470.2,376
	c-1.5,2.3-2.5,5.3-2.8,9.2c-0.2,3.6-0.5,8.3,1.7,10c2.3-4.5,2.7-12.3,2-19C470.7,376.3,470.4,376.2,470.2,376z M413,380.5
	c10.1,1.6,15.8,6.9,23.2,10.5c2.3-2.7,4-6,5.2-9.7C434.1,377.8,421.1,378.2,413,380.5z M334.3,397.5c-5.6,6.4-8.2,15.5-11.5,25
	c-2.4,6.9-4.4,13.6-6,21.2c-0.5,2.4-1.5,5.5,0,7.7c4.1-1.9,7.7-5.9,11.5-9.2c1.5-1.3,3.4-3,5.7-5c2.1-1.8,4.9-3.3,5.2-5.5
	c0.2-1.1-0.2-2.5-0.2-3.7c-0.4-11-0.6-25.6,0-35C337.7,394.7,335.8,395.8,334.3,397.5z M232.1,413.2c-3.4,5.8-7.1,11.7-7.5,18
	c-0.3,5.2,3.5,7.6,7.7,5.2c1.9-1.1,3.4-5.3,4.5-8c3.7-9.2,7.5-19.3,7.2-29.7c-0.2,0-0.3,0-0.2-0.2c0-0.2,0-0.3-0.2-0.2
	C239,402,235.9,406.8,232.1,413.2z M227.1,403.5c-2.7,2-5.1,4.4-8,6.2c-4.4,5.6-9.6,10.6-14.2,16.7c-4.3,5.8-8.5,12.1-12.2,19
	c-5.7,10.4-8.7,21.8-10.7,36c-0.7,4.6-2,9.5-1.7,14c0.6,13.9,13.9,1.3,17.2-2.5c10.9-12.5,19-26.3,26.5-41.2
	c-4.9,0.3-7.9,4.6-13.5,2.8c-4-1.3-4.6-7.2-3.7-12.5c2.5-15.1,15.5-28.2,21.7-38.5c-0.4-0.1-0.4-0.4-0.7-0.5
	C227.6,403.3,227.2,403.2,227.1,403.5z M443.2,438.2c0.2,3,0.9,7.7,3,8c2.3,0.3,4.6-3.7,5.7-5.5c4.8-7.5,8.1-14.8,10.7-23.5
	c-8.5-0.7-12.4-5.9-15-12.5C444.8,412,442.5,427.5,443.2,438.2z M62.5,528.1c-3.5,0.6-6.9,1.8-10.2,2.7c-13.6,4-25,9.5-35,17.5
	c-4,3.2-11.6,8.7-10.5,15.7c0.5,3.6,5.7,5.4,10,5.7c12,0.9,19.9-3.3,29.2-6.7c7-2.6,13.4-6,19.7-9.2c6.5-3.4,12.8-6.7,18.7-10.2
	c6.2-3.7,12.3-7.5,16.7-12.5C92.5,525.1,74.3,526.2,62.5,528.1z"/>
<path class="st0" d="M250.1,151.1c4.6-3.7,8.4-10.4,16.7-8c8.2,2.3,7.2,12.1,7.2,23.7c0,6.5-1.3,13.7,2.5,15.5c1.5,0.7,3.6,0,4.5,1
	c-0.8,1.4-3.1,0.7-4.8,0.7c-4.7,0-11.4,0.4-15.5-0.5c0.3-1.4,2.1-0.7,3-1c3.9-1.4,3-7,3-14c0-8.2,1.2-16.8-3-20
	c-6.2-1.5-10.9,1.9-13.7,5.2c0.4,6-0.4,17-0.2,23.2c0.1,4.2,2.2,5.7,6,6.2c-0.8,1.4-3.1,0.7-4.7,0.7c-4.7,0-11.4,0.4-15.5-0.5
	c1.2-1.3,4.5-0.7,5.7-2c2-3.3,1.3-7.9,1.3-12.5c0-8.8,0-18.4,0-27.5c0-4.4,0.9-9-1.8-11.7c-1.6-0.3-3.3,0.6-4.2,0
	c0.2-1.8,3.8-2.3,5.7-3c2.6-1,5.1-2.1,7.2-3C250.7,131.9,249.7,144.7,250.1,151.1z"/>
<path class="st0" d="M321.8,125.2c7.4-1.8,7.2,9.8,0.5,9C317.6,133.6,316.9,126.3,321.8,125.2z"/>
<path class="st0" d="M402.5,125.2c3.9-0.9,6.8,2.6,5.2,6.2c-2.1,5-10.4,2.6-8.5-3.5C399.5,127.1,400.3,125.6,402.5,125.2z"/>
<path class="st0" d="M378.2,131.7c1.3,1,0.7,3.4,0.7,5.5c0,2.1,0,4.4,0,6.2c2.4,0.6,5.9,0.1,8.7,0.2c0,1.1,0,2.2,0,3.2
	c-2.8,0-5.7,0-8.5,0c0,5.6-0.8,18.8-0.2,26.5c0.3,3.9,1.5,7.2,6,6.7c2.6-0.3,3.2-2.2,5.5-3.2c0.6,1.3-1.3,3-2.5,4.2
	c-2.3,2.4-5.1,4.3-10.5,3.7c-10.1-3-4.1-26-5.7-38c-2-0.3-5.1,0.6-6.2-0.5c0.5-2.2,3-2.5,4.5-3.5c3.6-2.5,6-5.9,7.5-10.5
	c0.1-0.2,0.3-0.4,0.2-0.8C377.9,131.7,378.1,131.7,378.2,131.7z"/>
<path class="st0" d="M333.8,183.4c-0.5,1.3-3.3,0.7-5,0.7c-5,0-11.9,0.4-16.2-0.5c0.9-1.5,2.5-0.5,4.2-1.2c4.2-1.8,2.7-11.1,2.7-19
	c0-5.6,0.8-13.6-1.8-14.7c-1.6-0.7-3.6,0.9-4.5-0.2c1.1-1.5,3.9-2.2,6-3c2.5-1,5.1-1.7,7.2-2.7c0.2,0,0.2,0.3,0.5,0.3
	c-0.4,4.3-0.2,11.3-0.2,18.5c0,7.6-1.5,19,2.5,21C330.8,183.1,332.5,182.3,333.8,183.4z"/>
<path class="st0" d="M414.5,183.4c-0.5,1.3-3.3,0.7-5,0.7c-5,0-11.9,0.4-16.2-0.5c0.9-1.4,2.7-0.6,4.2-1.2c1.6-0.7,2.5-2.1,2.7-4.7
	c0.6-5.8,0.4-17.6,0-23.7c-0.1-2-0.8-4.6-1.5-5c-1.5-1-3.8,0.6-4.7-0.5c0.9-1.4,3.5-2.1,5.7-3c2.6-1,5.1-1.6,7.5-2.7
	c0.4,3.6,0.2,11.8,0.2,19.2c0,7.6-1.4,18.1,2,20.2C411.1,183.1,412.9,182.3,414.5,183.4z"/>
<path class="st0" d="M470.2,142.9c0,2.7,0,5.3,0,8c5-2.4,6.2-9,15-8c14.2,1.7,7.2,23.4,9.2,36c0.5,3,3.5,4.1,7,4.2
	c-0.4,1.7-3,1-4.5,1c-4.8,0-11.6,0.4-15.7-0.5c-0.4-1.6,2.2-0.1,2.5-1c4.6,0,3.2-8.8,3.2-14.7c0-7.5,1.6-18-3.5-19.5
	c-4.9-1.4-10.2,2.2-13.2,5.7c1.5,6.5-2.8,25.5,2,28.2c1.3,0.7,2.7-0.1,4,1c-0.8,1.4-3.1,0.7-4.7,0.7c-4.7,0-11.4,0.4-15.5-0.5
	c0.7-1.4,2.9-0.7,4.2-1.2c3.9-1.7,2.8-8.8,2.8-16c0-7.5,1-14.3-1.8-17.7c-1.5-0.6-3.1,0.5-4.2,0c0.3-2,3.4-2.2,5.5-3
	c2.5-1,5.1-2,7.2-3C470,142.6,470.1,142.7,470.2,142.9z"/>
<path class="st0" d="M296.3,142.9c0.2,0,0.3,0,0.5,0c0,2.2,0,4.3,0,6.5c2.6-2.7,6.1-7,10.7-6.5c2,0.2,5.5,2.4,4.5,6.2
	c-0.3,1-1.6,2.3-3,2.5c-3.7,0.5-3.4-2.9-6.5-3c-3.2-0.1-4,3.1-5.7,5c0.5,6.1-0.6,17.4,0,23.7c0.4,4.4,2.8,5.3,7,6
	c-0.5,1.3-3.3,0.7-5,0.7c-5,0-11.9,0.4-16.2-0.5c0.8-1.4,2.7-0.6,4.2-1.2c4.1-1.8,2.7-9.1,2.7-17c0-7.1,0.9-13.6-1.7-16.7
	c-1.7-0.3-3.3,0.6-4.5,0c1.1-1.9,3.9-2.2,6-3c2.3-0.9,4.6-1.9,6.7-2.7C296.1,142.9,296.2,142.9,296.3,142.9z"/>
<path class="st0" d="M360.8,144.2c-0.5,4.1,0.9,8.9-0.2,12c-1.9-1-1.1-2.5-1.7-4c-1.4-3.5-4.9-6.5-9.2-6.5c-3.9,0-8.2,2.7-6.5,8
	c0.9,2.9,5.2,4.8,8.5,6.5c5.4,2.8,12.4,6.6,12,15c-0.4,6.7-7,10.5-14.7,9.7c-2.5-0.2-4.8-1.9-7.2-1.7c-2,0.1-1.5,1.1-3.7,1.2
	c-0.3-4-0.6-10.9,0-14.5c1.7,0.4,1.4,2.7,1.7,3.7c1.5,4.5,6.7,10.8,14,8c3.3-1.3,4.6-5.9,2-9.5c-4.3-6-18.7-7-18.5-18
	c0.1-8.2,8.4-13,16.7-10.7C355.8,143.9,358,145.9,360.8,144.2z"/>
<path class="st0" d="M448.2,179.6c3,0.5,3.6-1.4,5.7-1.7c-0.2,5.8-14.2,11.3-14,0.7c-4.2,1.9-7.8,7.7-15.5,6.2
	c-4.9-0.9-7.4-5.5-6.7-11.2c1.2-10.2,14.3-12,22.2-15.5c1-7.7-1.5-12.3-7-12.5c-1.7-0.1-4.8,0.6-6,2.2c-1.5,2.2,0.2,6.3-1.3,8
	c-2,2.3-5.4,0.6-6-0.5c-0.5-1-0.4-3.9,0-5.2c3-9.3,25.8-10.4,27.5,0.7c0.7,4.3,0,10,0,15C447.2,170.7,446.4,175.6,448.2,179.6z
	 M439.2,161.1c-4.5,2-9.9,3.1-12.7,6.7c-2.3,3-2.5,9,0.8,11.2c3.4,2.3,11.7-0.4,12.7-3.7c0.6-1.8,0-5,0-7.2c0-2.6,0.4-5.1-0.5-7
	C439.4,161.1,439.3,161.1,439.2,161.1z"/>
<path class="st0" d="M615.8,346.8c-2.3-3.2,1.1-5.9,3.2-7.7c4.6-4,10.6-7.1,16.5-9.5c3.4-1.4,6.3-2,10-2.7c2.4-0.5,8.5-3.1,9.2,0.5
	c0.5,2.4-3.3,6.2-5,7.7c-2.6,2.4-7.2,5.2-10.2,6c-2.6,0.7-6.5,0.7-8.7,1.3C625.8,343.5,621.1,346.6,615.8,346.8z"/>
</svg>
