<?xml version="1.0" encoding="utf-8"?>
<!-- Generator: Adobe Illustrator 22.0.1, SVG Export Plug-In . SVG Version: 6.00 Build 0)  -->
<svg version="1.1" id="Livello_1" xmlns="http://www.w3.org/2000/svg" xmlns:xlink="http://www.w3.org/1999/xlink" x="0px" y="0px"
	 viewBox="0 0 713 94.3" style="enable-background:new 0 0 713 94.3;" xml:space="preserve">
<style type="text/css">
	.st0{fill:#1D1D1B;}
</style>
<g>
	<polygon class="st0" points="135.8,79.2 135.8,79.1 135.8,79.1 	"/>
	<polygon class="st0" points="145.5,15.3 135.9,15.3 135.8,79.1 163.5,79.1 163.5,71.3 145.5,71.3 	"/>
	<path class="st0" d="M26.8,15.4h-20v63.7h20c21,0,33.1-15,32.6-32.7C58.9,29.3,45.6,15.4,26.8,15.4z M49.1,48.9
		c-0.5,13-9.8,22.3-22.4,22.3H17V23.5l9.8,0.1C40.2,23.8,49.7,34.8,49.1,48.9z"/>
	<polygon class="st0" points="634.2,62.9 589.6,15.3 583.4,15.3 583.4,79.1 592.8,79.1 592.8,32.4 636.5,79.1 643.5,79.1 
		643.5,15.3 634.2,15.3 	"/>
	<polygon class="st0" points="216.8,79.1 249.8,79.1 249.8,71.4 226.8,71.4 226.8,49.5 249.2,49.5 249.2,41.8 226.8,41.8 
		226.8,23.1 249.8,23.1 249.8,15.3 216.8,15.3 	"/>
	<path class="st0" d="M679.6,15.3h-6.3l-26.7,63.8h10.6l7.1-18.1h24.1l7.2,18.1h10.6L679.6,15.3z M667.9,53l8.6-22.4l8.6,22.4H667.9
		z"/>
	<path class="st0" d="M395.3,15.3l-26.7,63.8h10.6l7.1-18.1h24.1l7.1,18.1h10.6l-26.7-63.8C401.4,15.3,395.3,15.3,395.3,15.3z
		 M389.9,53l8.6-22.4l8.6,22.4H389.9z"/>
	<path class="st0" d="M547,15.3l-26.7,63.8h10.6L538,61h24.1l7.1,18.1h10.6l-26.7-63.8C553.1,15.3,547,15.3,547,15.3z M541.6,53
		l8.6-22.4l8.6,22.4H541.6z"/>
	<path class="st0" d="M510.5,44.5c4.3-2.9,7-6.6,7-11.7c0.2-14.8-9.9-17.1-20.3-17.4h-17.8v63.8H500c13.1,0,22.6-4.5,23.3-17.2
		C523.8,54.3,518.2,46.3,510.5,44.5z M489.8,23.1h1.6c7.7-0.2,16.1-0.6,16.1,9c0,9.8-7.9,9.7-16.2,9.9h-1.5V23.1z M495.7,71.5h-5.9
		V49.8h6.2c6.7,0,16.8,0.2,16.8,10.5C512.9,69.8,505,71.6,495.7,71.5z"/>
	<path class="st0" d="M462.3,44.5c4.3-2.9,7-6.6,7-11.7c0.2-14.8-9.9-17.1-20.3-17.4h-17.8v63.8h20.6c13.1,0,22.6-4.5,23.3-17.2
		C475.6,54.3,469.9,46.3,462.3,44.5z M441.6,23.1h1.6c7.7-0.2,16.1-0.6,16.1,9c0,9.8-7.9,9.7-16.2,9.9h-1.5V23.1z M447.5,71.5h-5.9
		V49.8h6.2c6.7,0,16.8,0.2,16.8,10.5C464.7,69.8,456.7,71.6,447.5,71.5z"/>
	<path class="st0" d="M192.1,13.3c-5,0.1-7.9,0.9-12.5,2.8c-14.5,6.2-22,18.5-20.6,33.8c1.2,13.4,8,22.5,20.6,28.1
		c4.5,2,7.4,2.8,12.4,3c5.1,0.3,8.2-0.1,13-1.8c3.7-1.3,5.9-2.1,8.9-4.6v-8.8c0,0-5.2,3.5-8.9,4.9c-4.8,1.7-7.9,2.4-13,1.8
		c-5.2-0.6-8.2-1.8-12.4-4.7c-3.5-2.4-5.3-4.2-7.4-7.8c-2-3.5-2.5-5.8-2.8-9.8c-0.8-9.8,2-17.3,10.2-23.2c4.2-3,7.2-4.2,12.4-4.7
		c5.1-0.5,8.2,0.2,13,1.9c3.7,1.3,5.6,2.7,8.9,4.7v-8.4c-2.8-2.4-3.9-3-8.9-5C200.9,13.8,196.2,13.1,192.1,13.3z"/>
	<path class="st0" d="M374.1,46.5h-30.8v7.8h20.4c-1.1,13.2-10.5,17.4-21.7,18.2c-14.1,1-25.3-11.1-25.6-24.8
		c-0.3-13.9,11.2-25.9,25.6-25.8c9.7,0.1,17.8,5.7,21.5,11.8l7.6-4c-3.7-9.3-15.9-16.2-29.1-16.5c-19.7-0.5-35.9,15.5-35.6,34.5
		c0.3,18.7,16.3,33.7,35.6,33.4C370.7,80.6,376,57,374.1,46.5z"/>
	<path class="st0" d="M122.9,23.6c-6.7-6.3-15.8-9.7-25.1-9.7c-9.4,0-18.4,3.5-25,9.7C66,29.9,62.4,38.3,62.4,47.4
		S66,64.7,72.8,71.1c6.7,6.3,15.7,9.8,25,9.8s18.4-3.5,25.1-9.8s10.3-14.6,10.3-23.7C133.2,38.2,129.7,29.9,122.9,23.6z M115.8,64.9
		c-5,4.8-11.3,7.3-18.1,7.3c-6.9,0-13.1-2.5-18.1-7.3c-4.9-4.8-7.5-10.8-7.5-17.5s2.6-12.9,7.5-17.7c4.8-4.7,11.2-7.2,18.1-7.2
		s13.2,2.5,18.1,7.2s7.5,10.9,7.5,17.7C123.4,54.1,120.7,60.1,115.8,64.9z"/>
	<path class="st0" d="M293.6,67.9l0.3-0.5l-3.3-3.5c0,0-3.1,3.9-3.8,4.8c-0.9-1-5.1-6-6-7c3.8-2.4,5.5-4.9,5.5-8
		c0-4.4-3.2-7.3-8.1-7.3c-4.8,0-8.2,3-8.2,7.3c0,2.2,0.7,4,2.3,5.7c0,0,0.4,0.4,0.8,0.8c-4.7,2.8-7,6-7,9.8c0,5.7,4.2,9.6,10.3,9.6
		c3.6,0,6.9-1.4,9.7-3.9c0.7,0.8,2.9,3.4,2.9,3.4h6.6c0,0-5.1-6-5.8-6.8C291.2,71.1,292.5,69.6,293.6,67.9z M278.3,51
		c1.9,0,3.1,1.1,3.1,2.8c0,1.5-0.9,2.8-2.7,3.9c0,0-0.5,0.3-0.9,0.5c-0.5-0.6-1.6-1.8-1.6-1.8c-0.7-0.8-1-1.6-1-2.5
		C275.2,52.2,276.5,51,278.3,51z M276.6,75.1c-3,0-5.2-2.1-5.2-5.1c0-2.4,1.5-3.8,4.3-5.7c0,0,0.2-0.1,0.4-0.3
		c0.7,0.8,6.1,7.2,6.9,8.1C280.7,74.1,278.7,75.1,276.6,75.1z"/>
</g>
</svg>
