<?xml version="1.0" encoding="utf-8"?>
<svg version="1.1" id="Layer_1"
xmlns="http://www.w3.org/2000/svg"
xmlns:xlink="http://www.w3.org/1999/xlink"
width="550px" height="400px"
xml:space="preserve">
<g id="PathID_5" transform="matrix(1.61064, 0, 0, 1.61064, 252.2, 215.15)" opacity="1">
<path style="fill:#431616;fill-opacity:1" d="M96.35 -30.35Q96.7 -29.9 96.6 -29.3Q96.55 -28.75 95.9 -28.45Q90.5 -26.6 84.9 -27.05Q79.35 -27.55 74 -29.35Q69.35 -30.95 64.75 -32.9Q60.15 -34.85 55.45 -36.5Q50.8 -38.15 45.95 -38.75Q41.15 -39.4 36 -38.35Q31.7 -37.45 27.65 -35.25Q23.6 -33.1 20.8 -29.65Q18.3 -26.45 16.7 -22.55Q15.15 -18.7 14.25 -14.75L14.3 -14.65L14.15 -14.25L13.9 -13.25Q14.25 -9.65 14.4 -6L14.45 -2L14.4 -0.6L14.4 0.7L14.35 0.9L14.35 1L14.3 1.25L14.3 1.5L14.35 1.7L14.35 1.75Q14.25 2.2 14.05 2.5Q13.85 2.8 13.5 2.75Q13.3 2.75 13.2 2.85L12.9 2.7L12.7 2.55Q12.15 1.85 12.15 0.95L12.25 -0.8L12.2 -5.05Q12.1 -9.45 11.65 -13.8L11.65 -14L11.6 -14.05L7.95 -18.05L6.15 -19.9L5.85 -20.25L5.7 -20.4L5.2 -20.95L5.1 -21L4.95 -21.25L4.35 -21.9L4.05 -22.1L3.85 -22.4Q3.55 -22.85 3.7 -23.35Q3.85 -23.85 4.4 -24L4.45 -24L4.65 -24.05L4.85 -24Q5.35 -23.9 5.7 -23.55L6.45 -22.85L8.7 -20.45L12.4 -16.45Q13.45 -20.7 15.25 -24.75Q17.1 -28.85 20 -32.1Q23.1 -35.45 27.25 -37.55Q31.4 -39.65 35.8 -40.55Q40.6 -41.5 45.35 -41.05Q50.15 -40.65 54.75 -39.15Q59.6 -37.55 64.55 -35.35Q69.55 -33.2 74.6 -31.4Q79.7 -29.65 84.85 -29.2Q90.05 -28.75 95.3 -30.6Q96 -30.8 96.35 -30.35" />
</g>
<g id="PathID_6" transform="matrix(1.61064, 0, 0, 1.61064, 252.2, 215.15)" opacity="1">
</g>
<g id="PathID_7" transform="matrix(2.06927, 0, 0, 1.2056, 276.7, 216)" opacity="1">
<path style="fill:#241D1D;fill-opacity:1" d="M13.65 -15Q14.4 -14.05 14.8 -13.25Q15.55 -11.85 15.8 -10.3Q16.1 -8.75 15.85 -7.15Q15.3 -3.8 12.9 -1.6Q10.5 0.55 7.2 1Q7 1.05 6.8 1L6.5 1.05Q6.35 1.05 6.25 0.95L6.15 0.9L5.9 0.8L5.7 0.6L5.7 0.55L5.6 0.35L5.55 0.25L5.5 0.15L5.35 -0.3L5.25 -1Q5.2 -1.3 5.3 -1.55L4.5 -22.75L4.45 -23.25L4.35 -23.65L4.4 -24.05L4.45 -24.1L4.5 -24.3Q4.55 -24.7 4.8 -24.95Q5.1 -25.2 5.5 -25.35L5.8 -25.35L6.1 -25.35L6.2 -25.3L6.35 -25.25L6.4 -25.25L6.7 -25.1L6.8 -25L6.85 -23.9L6.95 -22.85L7.15 -16.55L7.4 -16.55Q9.4 -18.3 11.15 -20.3Q12.9 -22.3 13.9 -24.75Q15 -27.55 14.6 -30.35Q14.2 -33.15 12 -35.35Q10.1 -37.15 7.6 -38Q5.15 -38.9 2.55 -39.1Q0.3 -39.3 -2 -39.2Q-4.3 -39.15 -6.55 -38.8Q-10.2 -38.15 -13.75 -37Q-17.3 -35.85 -20.8 -34.6Q-24.75 -33.2 -28.7 -32.15Q-32.7 -31.1 -36.85 -30.55Q-41.75 -30 -46.6 -30.45Q-51.45 -30.95 -56.2 -32.35Q-56.95 -32.6 -57 -33.2Q-57.1 -33.85 -56.7 -34.35Q-56.3 -34.85 -55.55 -34.65Q-49.95 -33.05 -44.2 -32.75Q-38.5 -32.5 -32.75 -33.65Q-27.4 -34.85 -22.2 -36.7Q-17 -38.55 -11.7 -40.05Q-6.45 -41.55 -0.85 -41.65Q2.6 -41.65 6.15 -40.85Q9.7 -40.1 12.5 -38.1Q15.35 -36.1 16.65 -32.5Q17.9 -28.25 16.4 -24.5Q14.9 -20.75 11.95 -17.65L11.4 -16.9L11.65 -16.8L11.7 -16.8Q11.75 -16.65 11.9 -16.65L12.05 -16.6Q12.95 -16 13.65 -15M13.4 -10.95Q12.85 -13 11.35 -14.35Q10.2 -14.85 8.95 -14.3Q7.7 -13.75 7.35 -12.55L7.3 -12.45L7.7 -1.8L7.8 -1.85Q7.75 -1.6 7.95 -1.5Q8.15 -1.4 8.35 -1.55L8.3 -1.4Q10.25 -2.05 11.7 -3.55Q13.15 -5.05 13.6 -7.05Q14 -8.9 13.4 -10.95" />
</g>
<g id="PathID_8" transform="matrix(2.06927, 0, 0, 1.2056, 276.7, 216)" opacity="1">
</g>
</svg>
